<?xml version="1.0" encoding="utf-8"?>
<!-- Generator: Adobe Illustrator 18.0.0, SVG Export Plug-In . SVG Version: 6.00 Build 0)  -->
<!DOCTYPE svg PUBLIC "-//W3C//DTD SVG 1.1//EN" "http://www.w3.org/Graphics/SVG/1.1/DTD/svg11.dtd">
<svg version="1.1" id="Layer_1" xmlns="http://www.w3.org/2000/svg" xmlns:xlink="http://www.w3.org/1999/xlink" x="0px" y="0px"
	 viewBox="0 0 382.8 114.3" enable-background="new 0 0 382.8 114.3" xml:space="preserve">
<path d="M163,73c0-1.5,0-3.6,0-5.5c-3.1,0.5-6.2,1.3-9.3,1.3c-11.9,0.1-21.4-9.6-21.4-21.5c0.1-12,9.9-21.6,21.9-21.3
	c11.9,0.2,21,9.6,21.1,21.4c0,15.2,0,30.4,0,45.6c0,11.3-8.7,20.7-19.5,21.3c-12.2,0.6-21.8-7.7-22.8-19.8
	c-0.9-10.8,7.3-21,18.4-22.2C155.1,71.9,159,72.8,163,73z M163.1,93.2c0-4.9-4.2-9-9.1-9c-4.8,0-8.9,4.1-8.9,9c0,4.9,4.1,9,9,9
	C159,102.2,163.1,98.1,163.1,93.2z M163,47.1c-0.2-5-4.4-9-9.3-8.8c-4.9,0.2-8.9,4.4-8.7,9.3c0.2,4.9,4.4,8.8,9.4,8.6
	C159.3,56.1,163.2,51.9,163,47.1z"/>
<path d="M233.9,28.1c4.5-1.8,8.6-2.4,13-1.7c10.7,1.8,18.1,11,17.8,22.3c-0.2,10-8.4,19-18.7,20.2c-13.3,1.7-24.2-7.9-24.3-21.9
	c-0.2-12.9,0-25.8,0-38.7c0-1.1,0.1-2.2,0.5-3.2c0.9-2.7,3.8-4.3,6.6-3.8c3.1,0.5,5.1,2.8,5.1,6.1c0,5.9,0,11.8,0,17.7
	C233.9,25.9,233.9,26.8,233.9,28.1z M252.1,47.2c0-5-4.1-9-9.1-8.9c-4.8,0.1-8.8,4.2-8.8,9c0,5,4,9,9,9
	C248.2,56.2,252.1,52.3,252.1,47.2z"/>
<path d="M30.8,28.1c0-2.6,0-4.9,0-7.2c0-4.3,0-8.6,0-12.9c0-4.1,2.4-6.8,6-6.8c3.7,0,6.2,2.6,6.2,6.9c0,11.7,0,23.4,0,35.1
	c0,3.1,0,6.3-0.7,9.3c-2.1,10.1-12.2,17.6-22.1,16.6C8.9,68,0.3,59.3,0,48.7c-0.3-11.3,7.3-20.6,18-22.4
	C22.3,25.7,26.4,26.4,30.8,28.1z M21.4,56.2c5,0,9-4,9.1-9c0-4.9-4.2-9-9.1-9c-4.8,0-8.9,4.1-9,8.9C12.3,52.1,16.4,56.2,21.4,56.2z"
	/>
<path d="M119.2,28c0-6.6,0-12.9,0-19.3c0-1.1,0-2.2,0.3-3.2c0.8-2.9,3.6-4.6,6.6-4.2c2.9,0.3,5.3,2.8,5.3,5.8
	c0,14.1,0.3,28.2-0.1,42.3c-0.3,10.9-10.2,19.9-21.3,19.9s-20.7-8.7-21.4-19.6c-1.2-16.2,13.9-27.7,29.2-22.1
	C118.2,27.7,118.6,27.8,119.2,28z M110,56.2c5,0,9-4.1,9-9c-0.1-4.8-4.1-8.9-9-9c-4.9,0-9.1,4.1-9.1,9C100.9,52.2,105,56.2,110,56.2
	z"/>
<path d="M220.1,54c-4.8,0-9.6,0-14.2,0c-4.7,0-9.4,0-14.6,0c2.2,2.4,4.5,3.5,7.3,3.5c4.6,0,9.2,0,13.8,0c4.2,0,6.9,2.5,6.9,6.2
	c0,3.7-2.7,6.1-6.8,6c-5.8,0-11.7,0.3-17.4-0.4c-11-1.4-18.9-11.8-18.1-22.6c0.8-11.2,9.7-20.1,20.6-20.5
	c11.4-0.4,21.3,7.6,22.7,18.6C220.4,47.6,220.1,50.7,220.1,54z M205.3,41.7c-2.5-4.2-10.7-4.6-13.6,0
	C196.2,41.7,200.7,41.7,205.3,41.7z"/>
<path d="M307.9,56.4c1.2,0.5,2.3,1,3.5,1.4c3.3,1.2,5,4.2,4.1,7.4c-0.9,3.3-4,5.3-7.4,4.3c-2.2-0.6-4.3-1.7-6.3-2.8
	c-1.2-0.7-1.9-0.9-3.2-0.1c-14.5,8-32.4-2.3-32.4-18.8c0-9.4,4.5-16.4,13.1-20.1c8.3-3.7,16.4-2.4,23.2,3.7
	c6.9,6.1,8.8,13.9,6.3,22.8C308.5,54.8,308.2,55.5,307.9,56.4z M288,38.6c-5,0-9.1,3.9-9.1,8.9c0,4.9,4.1,9,9,9c4.9,0,9.1-4.2,9-9.1
	C296.9,42.7,292.8,38.6,288,38.6z"/>
<path d="M87.3,47.9c0,12.1-9.7,21.8-21.7,21.8c-12.1,0-21.9-9.7-21.9-21.9c0-12,9.8-21.7,21.8-21.7S87.3,35.8,87.3,47.9z M75.1,47.8
	c0-5.2-4.4-9.6-9.6-9.6c-5.2,0-9.6,4.4-9.7,9.6c0,5.2,4.5,9.7,9.8,9.6C70.9,57.4,75.1,53.1,75.1,47.8z"/>
<path d="M326,27.7c0,6.8,0,13.5,0,20.3c0,5.9,3.3,9.6,9.2,10.1c3.9,0.3,6.5,3,6.2,6.4c-0.3,3.7-3.2,6.1-7.3,5.7
	c-11.9-1-20.2-9.9-20.3-21.8c0-13.8,0-27.7,0-41.5c0-2.1,0.3-3.9,2-5.3c1.8-1.6,3.9-2,6.1-1.3c2.2,0.7,3.7,2.3,4,4.7
	c0.1,0.8,0.2,1.6,0.2,2.4C326,14.2,326,20.9,326,27.7z"/>
<path d="M350.8,27.7c0,6.8,0,13.5,0,20.3c0,5.9,3.4,9.6,9.2,10.1c4.1,0.3,6.5,3,6.2,6.6c-0.3,3.6-3.2,5.9-7.3,5.5
	c-12-1-20.3-10-20.3-22c0-13.8,0-27.7,0-41.5c0-3.9,2.2-6.5,5.7-6.7c3.7-0.3,6.5,2.3,6.5,6.2C350.8,13.4,350.8,20.6,350.8,27.7z"/>
<path d="M369.9,14.4c-2.2-2.7-2.7-5.5-1.2-8.5c1.5-3,4.3-3.9,7.5-3.9c1.4,0,2.9,0,4.4,0c1.4,0.1,2.4,0.9,2.1,2.2
	c-0.2,0.7-1.4,1.6-2.2,1.7c-1.5,0.3-3.2,0-4.8,0.1c-2.4,0.1-3.6,1.2-3.6,3.1s1.3,3,3.7,3.1c1.2,0,2.5,0,3.7,0c1.5,0,3.1,0,3.1,2.1
	c0,1.9-1.5,2-3,1.9c-1.4,0-2.8,0-4.1,0c-2.1,0.1-3.4,1.3-3.3,3.2c0,1.8,1.2,2.9,3.3,2.9c1.5,0,3.1,0,4.6,0c1.4,0,2.4,0.6,2.4,2.2
	c0,1.5-1.1,1.9-2.4,1.9c-1.2,0-2.3,0-3.5,0c-3.3,0.2-6.1-0.7-7.7-3.8C367.2,19.9,367.8,17.1,369.9,14.4z"/>
<path d="M381.5,64c0,3.8-2.9,6.8-6.7,6.8c-3.7,0-6.6-3-6.6-6.7c0-3.8,2.8-6.6,6.5-6.7C378.6,57.3,381.5,60.2,381.5,64z"/>
<path d="M372.6,41.3c-3.1-2-5.3-4.5-4.5-8.5c0.7-3.8,4.1-6,8.1-5.5c3.5,0.4,6.2,3.7,5.9,7.6c-0.2,3.6-3.2,6.5-6.9,6.5
	C374.4,41.4,373.4,41.3,372.6,41.3L372.6,41.3z M375.1,31.3c-1.7,0-3,1.2-3.1,2.9s1.2,3.1,2.8,3.2c1.7,0.1,3.2-1.4,3.3-3
	C378.2,32.7,376.8,31.3,375.1,31.3z"/>
<path d="M372.5,41.3c1,1.3,1,2.5,0,3.9c-1,1.3-0.7,2.8,0.6,3.9c1.2,1,2.6,1,3.8,0c1.3-1,1.6-2.4,0.8-3.9c-0.1-0.3-0.4-0.5-0.4-0.7
	c0.1-0.9,0.1-2.4,0.6-2.6c0.8-0.3,2.2-0.1,2.8,0.4c2.4,2.4,2,7.2-0.7,9.7c-2.9,2.6-7.3,2.5-10-0.3c-2.5-2.7-2.7-7.4-0.1-9.7
	C370.4,41.4,371.6,41.5,372.5,41.3C372.6,41.3,372.5,41.3,372.5,41.3z"/>
</svg>
