<svg xmlns="http://www.w3.org/2000/svg" version="1.1" viewBox="0 0 3261.5 2845.7"><g><path style="fill-rule:evenodd;clip-rule:evenodd;fill:#e7e7e8" d="M3056,202L2852.5,0.5L2648.3,202L2445.3,1l-204.8,201L2038.2,1.5L1832.9,202l-201.2-200l-206.5,200L1223.8,2.6L1017.4,202L816.6,3.1L609.7,202L409.4,3.6L202,202L0,4.1v2644.2c0,109,88.4,197.4,197.4,197.4h2252.3l811.8-804.8V0L3056,202z"/><path style="fill-rule:evenodd;clip-rule:evenodd;fill:#dcdddf" d="M1631.7,2.1l-206.5,200L1223.8,2.6L1017.4,202L816.6,3.1L609.7,202L409.4,3.6L202,202L0,4.1v2644.2c0,109,88.4,197.4,197.4,197.4h1434.3V2.1z"/><rect style="fill:#4657a6" width="1423.5" height="1423.5" x="207.5" y="1217.9"/><path style="fill:#fff" d="M1351.3,1853.5h-51.9H1129H925.6V2030h245.1c-22.8,112.2-118.5,176.4-245.1,176.4c-149.4,0-270.1-120.6-270.1-270.1s120.6-270.1,270.1-270.1c64.5,0,122.4,22.8,168.3,60.3l132.9-132.9c-81-70.5-184.8-114.3-301.3-114.3c-253.5,0-457,203.4-457,457s203.7,457.3,457,457.3c228.6,0,436.3-166.2,436.3-457C1361.9,1909.7,1357.7,1880.6,1351.3,1853.5z"/><rect style="fill:#5a81c1" width="1424.2" height="467.3" x="207.5" y="549.8"/><rect style="fill:#3da6dd" width="1424.3" height="467.3" x="1631.7" y="549.8"/><g style="fill:#c3c3c3"><rect width="1217.8" height="97.9" x="1838.8" y="1223.9"/><rect width="1217.8" height="97.9" x="1838.8" y="1427.7"/><rect width="1217.8" height="97.9" x="1838.8" y="1631.6"/><rect width="1217.8" height="97.9" x="1838.8" y="1835.5"/><rect width="1217.8" height="97.9" x="1838.8" y="2039.4"/><rect width="792.2" height="97.9" x="1838.8" y="2243.3"/><rect width="792.2" height="97.9" x="1838.8" y="2447.2"/></g><path style="fill-rule:evenodd;clip-rule:evenodd;fill:#a4a4a4" d="M2449.7,2845.7l0.7-603.3c0.1-111.3,90.4-201.4,201.7-201.4h609.4L2449.7,2845.7z"/></g></svg>